<?xml version="1.0" standalone="no"?>
<!DOCTYPE svg PUBLIC "-//W3C//DTD SVG 20010904//EN"
 "http://www.w3.org/TR/2001/REC-SVG-20010904/DTD/svg10.dtd">
<svg version="1.0" xmlns="http://www.w3.org/2000/svg"
 width="700.000000pt" height="700.000000pt" viewBox="0 0 700.000000 700.000000"
 preserveAspectRatio="xMidYMid meet">
<metadata>
Created by potrace 1.14, written by Peter Selinger 2001-2017
</metadata>
<g transform="translate(0.000000,700.000000) scale(0.100000,-0.100000)"
fill="#000000" stroke="none">
<path d="M667 6869 c-257 -53 -460 -246 -529 -502 -22 -82 -22 -84 -22 -1112
0 -566 3 -1049 7 -1073 16 -102 64 -218 124 -300 89 -123 272 -244 402 -267
19 -3 39 -9 45 -13 6 -4 474 -7 1040 -7 931 -1 1036 1 1112 16 262 53 461 241
536 506 22 78 22 80 23 1098 0 760 -2 1038 -11 1092 -22 125 -86 257 -172 355
-84 94 -242 182 -387 214 -16 4 -493 7 -1058 8 -933 2 -1035 0 -1110 -15z"/>
<path d="M4160 6872 c-80 -14 -192 -62 -262 -110 -157 -110 -256 -265 -294
-462 -4 -19 -8 -494 -8 -1055 -2 -953 0 -1025 17 -1100 50 -224 203 -407 408
-493 139 -57 115 -56 1224 -56 929 0 1027 2 1095 17 256 59 452 250 526 512
15 54 17 159 19 1090 2 1112 2 1106 -51 1235 -87 210 -258 358 -479 416 -65
17 -138 18 -1095 19 -825 1 -1040 -2 -1100 -13z"/>
<path d="M747 3404 c-1 -1 -21 -4 -44 -8 -142 -19 -277 -88 -383 -195 -106
-107 -158 -204 -196 -366 -4 -16 -8 -493 -9 -1060 -2 -952 -1 -1036 16 -1111
45 -207 178 -379 364 -470 168 -82 84 -77 1238 -78 936 -2 1036 0 1113 15 294
60 513 296 552 594 9 73 8 2046 -2 2095 -46 240 -185 421 -399 520 -141 66
-77 63 -1215 65 -568 0 -1033 0 -1035 -1z"/>
<path d="M4195 3398 c-222 -29 -421 -171 -524 -375 -35 -68 -57 -135 -68 -203
-4 -25 -7 -506 -8 -1070 0 -962 1 -1030 19 -1100 66 -270 277 -470 556 -526
19 -4 492 -8 1050 -9 1005 -1 1026 -1 1170 29 14 3 61 23 105 45 140 69 246
173 315 310 34 69 59 149 67 221 9 71 9 2019 0 2085 -37 293 -268 532 -572
591 -52 10 -2032 12 -2110 2z"/>
</g>
</svg>
